<svg width="558" height="129" viewBox="0 0 558 129" fill="none" xmlns="http://www.w3.org/2000/svg">
<path d="M45.0771 28.7476C46.6131 23.8036 52.2291 21.1636 57.6051 22.8436L45.6531 61.4356C45.1731 63.0196 44.2131 64.4116 43.0131 65.4676C41.7171 66.5716 40.1331 67.3876 38.3571 67.3876C36.5811 67.3876 34.9971 66.5716 33.7011 65.4676C32.5011 64.4116 31.5411 63.0196 31.0611 61.4356L28.8051 54.2356L26.5971 61.4356C26.1171 63.0196 25.1571 64.4116 23.9571 65.4676C22.6611 66.5716 21.0771 67.3876 19.3011 67.3876C17.5251 67.3876 15.9411 66.5716 14.6451 65.4676C13.4451 64.4116 12.4851 63.0196 12.0051 61.4356L0.0530996 22.8436C5.4291 21.1636 11.0451 23.8036 12.5811 28.7476L19.3011 52.4596L25.9731 28.7476C27.5091 23.8036 33.1251 21.1636 38.5491 22.8436L34.0851 37.2436L38.3571 52.1716L45.0771 28.7476ZM61.0052 31.7236C61.0052 26.3956 65.7092 22.1236 71.4692 22.1236V57.8356C71.4692 63.1636 66.8132 67.4836 61.0052 67.4836V31.7236ZM103.24 31.9156C103.24 26.4916 107.848 22.1236 113.272 22.1236V57.6916C113.272 63.0676 108.616 67.4836 103.24 67.4836V63.9316L85.0003 39.5476V57.7396C85.0003 63.1156 80.6323 67.4836 75.2083 67.4836V31.9156C75.2083 26.4916 79.5763 22.1236 85.0003 22.1236L103.24 48.4276V31.9156ZM146.272 31.9156C146.272 26.4916 150.88 22.1236 156.304 22.1236V57.6916C156.304 63.0676 151.648 67.4836 146.272 67.4836V63.9316L128.032 39.5476V57.7396C128.032 63.1156 123.664 67.4836 118.24 67.4836V31.9156C118.24 26.4916 122.608 22.1236 128.032 22.1236L146.272 48.4276V31.9156ZM192.166 26.2036C193.078 27.6916 193.606 29.3716 193.606 31.2436V58.1716C193.606 63.5476 189.094 67.3876 183.622 67.9156C181.894 68.0596 177.094 68.1556 175.126 68.1556C173.302 68.1556 171.574 68.0596 169.942 67.9156C167.206 67.6756 164.662 66.8116 162.838 65.0356C162.166 64.4596 161.686 63.8356 161.398 63.2116C160.486 61.7236 159.958 60.0436 159.958 58.1716V31.2436C159.958 25.8676 164.47 22.0276 169.942 21.4996C171.67 21.3556 173.446 21.2596 175.414 21.2596C177.238 21.2596 181.99 21.3556 183.622 21.4996C186.358 21.7396 188.902 22.6036 190.726 24.3796C191.398 24.9556 191.878 25.5796 192.166 26.2036ZM183.622 55.0996V34.0276C183.382 32.5396 182.374 31.4836 180.838 31.4836H172.726C171.142 31.4836 170.182 32.5396 169.942 34.0276V55.0996C170.182 56.5876 171.142 57.6916 172.726 57.6916H180.79L180.838 57.6436C182.374 57.6436 183.382 56.5876 183.622 55.0996ZM221.161 28.8916C222.697 23.9956 228.265 21.3556 233.641 22.9876L221.737 61.3396C221.257 62.9236 220.345 64.2676 219.145 65.3236C217.849 66.4756 216.265 67.2916 214.489 67.2916C212.713 67.2916 211.177 66.4756 209.881 65.3236C208.681 64.2676 207.721 62.9236 207.241 61.3396L195.385 22.9876C200.761 21.3556 206.329 23.9956 207.865 28.8916L214.489 53.1796L221.161 28.8916ZM252.65 28.4596L262.202 67.0036C256.874 68.2996 251.546 65.3716 250.346 60.4756L249.818 58.3156L249.626 57.2596H240.266L240.074 58.3156L239.546 60.4756C238.346 65.3716 233.018 68.2996 227.69 67.0036L237.29 28.4596C237.866 26.0596 239.21 24.3796 241.274 23.1796C242.378 22.5556 243.626 22.1716 244.97 22.1716C246.266 22.1716 247.514 22.5556 248.618 23.1796C250.73 24.3796 252.026 26.0596 252.65 28.4596ZM241.946 49.2436H247.946L244.97 34.8436L241.946 49.2436ZM267.327 22.4116H293.199C293.199 28.2196 288.831 32.2036 283.503 32.2036H280.671V57.5956C280.671 62.9716 275.967 67.2916 270.159 67.2916V32.2036H257.631C257.631 26.3476 261.951 22.4116 267.327 22.4116ZM293.411 31.7236C293.411 26.3956 298.115 22.1236 303.875 22.1236V57.8356C303.875 63.1636 299.219 67.4836 293.411 67.4836V31.7236ZM341.088 26.2036C342 27.6916 342.528 29.3716 342.528 31.2436V58.1716C342.528 63.5476 338.016 67.3876 332.544 67.9156C330.816 68.0596 326.016 68.1556 324.048 68.1556C322.224 68.1556 320.496 68.0596 318.864 67.9156C316.128 67.6756 313.584 66.8116 311.76 65.0356C311.088 64.4596 310.608 63.8356 310.32 63.2116C309.408 61.7236 308.88 60.0436 308.88 58.1716V31.2436C308.88 25.8676 313.392 22.0276 318.864 21.4996C320.592 21.3556 322.368 21.2596 324.336 21.2596C326.16 21.2596 330.912 21.3556 332.544 21.4996C335.28 21.7396 337.824 22.6036 339.648 24.3796C340.32 24.9556 340.8 25.5796 341.088 26.2036ZM332.544 55.0996V34.0276C332.304 32.5396 331.296 31.4836 329.76 31.4836H321.648C320.064 31.4836 319.104 32.5396 318.864 34.0276V55.0996C319.104 56.5876 320.064 57.6916 321.648 57.6916H329.712L329.76 57.6436C331.296 57.6436 332.304 56.5876 332.544 55.0996ZM374.131 31.9156C374.131 26.4916 378.739 22.1236 384.163 22.1236V57.6916C384.163 63.0676 379.507 67.4836 374.131 67.4836V63.9316L355.891 39.5476V57.7396C355.891 63.1156 351.523 67.4836 346.099 67.4836V31.9156C346.099 26.4916 350.467 22.1236 355.891 22.1236L374.131 48.4276V31.9156Z" fill="#003B6F"/>
<path d="M178.912 83.4377H204.784C204.784 89.2457 200.464 93.2297 195.088 93.2297H192.256V118.67C192.256 123.998 187.552 128.318 181.744 128.318V93.2297H169.216C169.216 87.4217 173.536 83.4377 178.912 83.4377ZM216.573 110.51V117.662H233.661C233.661 123.566 229.101 128.318 223.245 128.318H216.285C210.621 128.318 206.109 123.806 206.109 118.142V93.5177C206.109 87.7577 210.765 83.1017 216.477 83.1017H235.965C235.965 89.0057 232.077 93.7577 226.221 93.7577H216.573V100.622H229.293L226.941 110.51H216.573ZM238.423 122.606C237.943 121.406 237.655 120.11 237.655 118.766V92.8937C237.655 92.8937 237.655 92.8457 237.655 92.7977C237.655 87.0857 241.111 83.3897 246.199 83.1017H265.639V85.6457C265.639 90.3497 262.375 93.9497 257.239 93.9497V92.7977H250.615C249.271 92.9417 248.023 93.9977 247.831 95.3897C247.783 95.5337 247.783 95.6777 247.783 95.8217V98.9417C247.783 99.1337 247.783 99.2777 247.831 99.4217V116.414C248.071 117.854 248.983 118.91 250.519 118.91H265.879C265.879 124.814 261.511 128.606 256.039 128.606H247.399V128.558C245.191 128.366 243.175 127.598 241.543 126.35C240.247 125.342 239.143 124.094 238.423 122.606ZM292.494 93.1337C292.494 87.6617 297.342 83.2457 303.246 83.2457V119.15C303.246 124.574 298.446 128.99 292.494 128.99V110.846H280.062V119.15C280.062 124.574 275.262 128.99 269.31 128.99V102.542C269.262 102.206 269.262 101.822 269.262 101.438H269.31V93.1337C269.31 87.6617 274.11 83.2457 280.062 83.2457V101.438H292.494V93.1337ZM327.657 93.8057H318.681V102.398H333.465C333.465 108.062 329.529 112.142 323.097 112.142H318.681V118.91C318.681 124.382 313.689 128.846 308.217 128.846H308.121V93.2297C308.121 87.8537 312.441 83.4857 317.817 83.3417H337.881C337.881 89.2457 333.705 93.8057 327.657 93.8057ZM350.354 110.51V117.662H367.442C367.442 123.566 362.882 128.318 357.026 128.318H350.066C344.402 128.318 339.89 123.806 339.89 118.142V93.5177C339.89 87.7577 344.546 83.1017 350.258 83.1017H369.746C369.746 89.0057 365.858 93.7577 360.002 93.7577H350.354V100.622H363.074L360.722 110.51H350.354ZM397.014 106.142C398.742 108.446 399.75 111.278 399.75 114.302V114.686C399.75 122.222 393.606 128.318 386.07 128.318H370.662C370.662 122.51 374.982 118.094 380.31 118.094H386.07C387.894 118.094 389.478 116.51 389.478 114.686V114.302C389.478 112.478 387.894 110.942 386.07 110.942H382.854C378.342 110.942 374.406 108.782 371.91 105.47C370.182 103.166 369.174 100.334 369.174 97.2617V96.9257C369.174 89.3897 375.318 83.2457 382.854 83.2457H397.11C397.11 89.0537 392.79 93.5177 387.462 93.5177H382.854C380.982 93.5177 379.446 95.0537 379.446 96.9257V97.2617C379.446 99.1337 380.982 100.67 382.854 100.67H386.07C390.534 100.67 394.518 102.83 397.014 106.142ZM407.943 83.4377H433.815C433.815 89.2457 429.495 93.2297 424.119 93.2297H421.287V118.67C421.287 123.998 416.583 128.318 410.775 128.318V93.2297H398.247C398.247 87.4217 402.567 83.4377 407.943 83.4377Z" fill="#0091CC"/>
<path d="M417.538 49.224H436.29C436.29 55.816 431.426 61.128 425.41 61.128H402.946V34.056C402.946 27.464 407.81 23.496 413.826 23.496H419.842C421.186 23.496 422.274 22.408 422.274 21.064V15.368C422.274 14.152 421.314 13.128 420.098 13.128H402.946C402.946 6.6 407.81 0.967999 413.826 0.967999H425.602C429.89 0.967999 433.41 3.592 434.498 7.432C434.946 8.456 435.202 9.928 435.33 11.08V11.272C435.394 11.592 435.394 11.848 435.394 12.168V22.152C435.266 30.024 427.65 35.016 420.354 35.016H417.538C416.322 35.016 415.362 36.04 415.362 37.256V46.984C415.362 48.264 416.322 49.224 417.538 49.224ZM460.703 0.391998C469.151 0.391998 475.999 7.24 475.999 15.688V45.704C475.999 54.152 469.151 61 460.703 61H454.687C446.239 61 439.391 54.152 439.391 45.704V15.688C439.391 7.24 446.239 0.391998 454.687 0.391998H460.703ZM454.687 12.68C453.087 12.68 451.743 14.024 451.743 15.688V32.008L463.711 16.136V15.688C463.711 14.024 462.367 12.68 460.703 12.68H454.687ZM460.703 48.712C462.367 48.712 463.711 47.368 463.711 45.704V29.832L451.743 45.704C451.743 47.368 453.087 48.712 454.687 48.712H460.703ZM496.351 49.224H515.103C515.103 55.816 510.239 61.128 504.223 61.128H481.759V34.056C481.759 27.464 486.623 23.496 492.639 23.496H498.655C499.999 23.496 501.087 22.408 501.087 21.064V15.368C501.087 14.152 500.127 13.128 498.911 13.128H481.759C481.759 6.6 486.623 0.967999 492.639 0.967999H504.415C508.703 0.967999 512.223 3.592 513.311 7.432C513.759 8.456 514.015 9.928 514.143 11.08V11.272C514.207 11.592 514.207 11.848 514.207 12.168V22.152C514.079 30.024 506.463 35.016 499.167 35.016H496.351C495.135 35.016 494.175 36.04 494.175 37.256V46.984C494.175 48.264 495.135 49.224 496.351 49.224ZM545.877 24.52C552.085 24.84 557.077 29.576 557.077 35.4V49.864C557.077 55.688 552.149 60.424 545.877 60.744V60.808H531.221L531.285 60.744C531.029 60.744 530.773 60.808 530.453 60.808H522.325C522.325 54.216 527.253 48.904 533.269 48.904H541.653C542.805 48.904 543.701 48.008 543.701 46.856V38.408C543.701 37.256 542.805 36.36 541.653 36.36H536.405L536.341 36.296C536.085 36.232 535.829 36.232 535.573 36.168V36.232C527.701 36.232 522.325 30.408 522.325 23.176V12.424H518.741C518.741 5.832 523.669 0.519997 529.685 0.519997H554.965C554.965 7.112 550.101 12.424 544.021 12.424H535.573V22.152C535.573 23.432 536.597 24.456 537.941 24.456H545.877V24.52Z" fill="#FF8809"/>
</svg>
